<svg preserveAspectRatio="xMidYMid meet" data-bbox="19.999 28.497 159.999 143.003" viewBox="19.999 28.497 159.999 143.003" height="200" width="200" xmlns="http://www.w3.org/2000/svg" data-type="color" role="presentation" aria-hidden="true" aria-label=""><defs><style>#comp-lw1hlju1__item-ker6vlu0 svg [data-color="1"] {fill: #FFFFFF;}</style></defs>
    <g>
        <path d="m136.824 132.131-.056-.002a1.57 1.57 0 0 1-1.511-1.627c.114-3.262.1-6.54.087-9.811-.014-3.375-.027-6.74.095-10.074.333-8.724 1.551-23.769 2.215-28.633-.003-.002.712-9.248.847-13.084.059-1.593-.991-2.52-1.994-2.856-.959-.321-2.28-.217-3.133 1.019a5.963 5.963 0 0 0-.551.98c-.719 1.663-1.03 3.518-1.358 5.483l-.269 1.559c-.663 3.571-1.709 11.447-2.273 15.824-.347 1.519-1.188 2.59-2.304 3.136a3.76 3.76 0 0 1-3.285.026c-1.726-.813-2.788-2.629-2.715-4.632l1.811-45.236a4.123 4.123 0 0 0-1.413-3.286 4.123 4.123 0 0 0-3.473-.946c-1.885.338-3.295 2.102-3.353 4.193l-1.054 36.246a4.49 4.49 0 0 1-1.579 3.291 4.488 4.488 0 0 1-3.489 1.019 4.49 4.49 0 0 1-3.849-4.157c-.687-11.027-.886-20.054-1.046-27.309-.078-3.527-.146-6.632-.258-9.342a70.13 70.13 0 0 1-.044-1.938c-.054-3.665-.111-7.455-2.958-9.434-1.115-.78-2.302-1.057-3.441-.797-1.316.299-2.545 1.309-3.371 2.774-.835 1.494-1.248 3.351-1.193 5.367l1.153 39.167a4.607 4.607 0 0 1-1.807 3.793 4.567 4.567 0 0 1-4.123.729 4.568 4.568 0 0 1-3.201-3.978c-.527-6.014-1.843-20.821-2.696-28.388-.213-1.89-1.396-4.466-3.169-5.516-.811-.481-1.619-.543-2.474-.189-3.783 1.571-3.363 7.433-3.057 11.715l.102 1.552c.167 2.999.289 6.002.413 9.007l.474 10.844a1.573 1.573 0 0 1-1.496 1.642 1.584 1.584 0 0 1-1.636-1.502l-.474-10.854a622.731 622.731 0 0 0-.41-8.963l-.1-1.501c-.352-4.941-.886-12.408 4.986-14.849 1.773-.737 3.594-.601 5.264.388 2.8 1.661 4.395 5.244 4.691 7.873.857 7.602 2.176 22.439 2.703 28.465a1.438 1.438 0 0 0 2.307 1.02c.377-.287.585-.722.571-1.195l-1.153-39.171c-.071-2.585.479-5.005 1.595-7.003 1.284-2.272 3.205-3.795 5.41-4.297 2.021-.458 4.07-.017 5.922 1.282 4.169 2.897 4.244 7.928 4.303 11.972.008.633.017 1.256.042 1.854.112 2.728.18 5.852.258 9.401.16 7.226.359 16.22 1.042 27.181a1.336 1.336 0 0 0 1.146 1.238c.391.056.748-.053 1.04-.304.292-.248.459-.598.471-.982l1.054-36.243c.097-3.571 2.593-6.602 5.932-7.201a7.222 7.222 0 0 1 6.085 1.67 7.27 7.27 0 0 1 2.486 5.786l-1.811 45.231c-.027.722.338 1.391.908 1.659a.64.64 0 0 0 .588-.003c.274-.135.493-.423.571-.755.564-4.367 1.62-12.309 2.297-15.95l.26-1.506c.343-2.066.7-4.201 1.574-6.217a9.28 9.28 0 0 1 .847-1.516c1.527-2.202 4.152-3.064 6.705-2.212 2.571.864 4.232 3.256 4.131 5.955-.138 3.899-.835 12.923-.864 13.304-.666 4.891-1.868 19.772-2.198 28.416-.121 3.29-.107 6.612-.094 9.944.014 3.31.027 6.629-.088 9.932a1.572 1.572 0 0 1-1.565 1.522z" fill="#ffffff" data-color="1"></path>
        <path d="M86.284 165.904c-.236 0-.469-.003-.704-.012-8.625-.241-16.692-5.695-20.538-13.891a76.81 76.81 0 0 0-9.453-15.283 73.432 73.432 0 0 0-9.567-8.971 72.276 72.276 0 0 0-13.116-8.145 1.574 1.574 0 0 1-.889-1.374c-.061-2.173.474-3.995 1.595-5.412 2.958-3.742 8.63-2.994 11.362-2.636 5.828.755 10.204 3.52 12.555 5.007 1.112.697 2.441 1.408 3.948 2.207l1.455.579c1.717.679 3.633.512 4.998-.454 1.498-1.057 2.324-2.766 2.214-4.57l.364-12.167c.026-.869.796-1.588 1.613-1.524a1.569 1.569 0 0 1 1.518 1.62l-.364 12.022c.177 2.76-1.146 5.504-3.54 7.192-2.246 1.594-5.219 1.893-7.963.804l-1.61-.65c-1.731-.908-3.125-1.658-4.296-2.392-2.152-1.361-6.149-3.887-11.296-4.553-2.163-.282-6.649-.876-8.502 1.47-.5.633-.799 1.453-.891 2.441a75.341 75.341 0 0 1 12.771 8.051 76.648 76.648 0 0 1 10.036 9.425 79.483 79.483 0 0 1 9.815 15.812c3.426 7.293 10.413 12.037 17.88 12.247.423.015.838.015 1.261 0 .808.075 1.59.656 1.612 1.526a1.57 1.57 0 0 1-1.52 1.618c-.253.01-.501.013-.748.013z" fill="#ffffff" data-color="1"></path>
        <path d="M75.561 127.334a1.56 1.56 0 0 1-1.059-.415c-3.577-3.295-7.904-4.802-10.189-5.41a1.58 1.58 0 0 1-1.209-1.531c.002-1.004.996-1.775 1.974-1.521 2.555.676 7.452 2.375 11.542 6.144.638.587.68 1.583.095 2.223-.309.338-.73.51-1.154.51z" fill="#3F4447" data-color="1"></path>
        <path d="M23.721 57.257a1.568 1.568 0 0 1-1.411-.886 1.578 1.578 0 0 1 .724-2.103c6.989-3.413 13.589-7.761 19.973-11.965 5.627-3.708 11.447-7.542 17.642-10.83.25-.133.507-.205.816-.179l25.798 1.367a1.57 1.57 0 0 1 1.481 1.654 1.581 1.581 0 0 1-1.647 1.487l-25.362-1.344c-5.925 3.174-11.557 6.883-17.008 10.475-6.466 4.259-13.152 8.664-20.322 12.165a1.553 1.553 0 0 1-.684.159z" fill="#ffffff" data-color="1"></path>
        <path d="M87.285 104.598c-.196 0-.384-.027-.544-.087-2.149-.828-4.242-1.794-6.336-2.762-3.337-1.545-6.79-3.141-10.318-4.041-3.728-.954-7.458-1.062-11.406-1.175-3.946-.113-8.025-.23-12.054-1.279a26.131 26.131 0 0 1-3.574-1.202c-1.697-.712-3.353-1.507-4.998-2.3-5.328-2.561-10.357-4.97-16.301-4.259-.85.084-1.637-.51-1.743-1.374a1.571 1.571 0 0 1 1.369-1.75c6.828-.823 12.527 1.903 18.026 4.546 1.6.768 3.208 1.542 4.857 2.235.984.415 2.015.761 3.152 1.058 3.682.959 7.409 1.065 11.353 1.18 3.946.113 8.026.229 12.091 1.27 3.805.97 7.389 2.627 10.855 4.232 1.646.76 3.29 1.521 4.952 2.206.342-1.246.689-3.344.702-3.903-.119-4.548-4.665-6.646-9.063-8.676-.753-.348-1.488-.686-2.173-1.028L66.259 82.6c-.894-.635-1.488-1.195-2.004-1.811a9.944 9.944 0 0 1-1.664-2.878 9.878 9.878 0 0 1 .281-7.628l2.521-7.723a1.55 1.55 0 0 1 1.977-1.002 1.571 1.571 0 0 1 .998 1.985l-2.586 7.891c-.825 1.82-.893 3.67-.255 5.379a6.825 6.825 0 0 0 1.136 1.963c.35.415.767.807 1.226 1.152l9.633 4.741c.661.328 1.367.654 2.093.988 4.776 2.204 10.718 4.947 10.886 11.484.002.065-.437 5.949-2.098 7.136-.281.205-.716.321-1.118.321z" fill="#3F4447" data-color="1"></path>
        <path d="M168.334 170.464a1.572 1.572 0 0 1-1.534-1.904l9.976-46.744a4.154 4.154 0 0 0-.583-3.129l-9.776-14.905L157.288 99a1.575 1.575 0 0 1-.665-2.122 1.56 1.56 0 0 1 2.113-.668l9.49 4.97c.236.123.437.306.585.529l9.998 15.247a7.326 7.326 0 0 1 1.03 5.521l-9.976 46.742a1.568 1.568 0 0 1-1.529 1.245z" fill="#ffffff" data-color="1"></path>
        <path d="M131.472 171.5c-.4 0-.801-.154-1.107-.459l-1.787-1.765c-1.345-1.318-2.696-2.644-3.983-4.041a26.607 26.607 0 0 1-2.412-3.032c-2.429-3.53-3.983-7.443-5.486-11.226-1.505-3.788-2.928-7.366-5.163-10.646-2.115-3.105-4.871-5.888-7.535-8.58-1.671-1.688-3.341-3.375-4.883-5.151-.345-.398-.507-1.159-.369-1.668.549-2.014 6.03-4.503 6.083-4.522 6.333-2.139 11.053 2.638 14.849 6.477.58.587 1.142 1.157 1.693 1.682l8.191 7.846c.265.145.792.411 1.348.616.76.266 1.547.405 2.333.401 3.302 0 6.093-2.25 6.806-5.487l2.385-14.965-5.99-10.2a1.579 1.579 0 0 1 .554-2.154 1.555 1.555 0 0 1 2.146.557l6.275 10.689c.185.316.255.686.197 1.048l-2.491 15.615c-1.04 4.734-5.355 8.104-9.956 8.044a10.12 10.12 0 0 1-3.317-.586 10.899 10.899 0 0 1-2.234-1.125l-8.409-8.02c-.57-.543-1.154-1.134-1.756-1.743-3.514-3.554-7.147-7.226-11.615-5.716-.52.205-2.453 1.304-3.528 2.083 1.253 1.381 2.581 2.72 3.909 4.061 2.764 2.791 5.622 5.678 7.899 9.021 2.433 3.566 3.985 7.476 5.488 11.259 1.505 3.786 2.926 7.363 5.153 10.601.682.99 1.381 1.868 2.132 2.682 1.253 1.359 2.569 2.648 3.876 3.928l1.811 1.787a1.58 1.58 0 0 1 .003 2.226 1.562 1.562 0 0 1-1.11.463z" fill="#ffffff" data-color="1"></path>
        <path d="M159.342 126.634c-.167 0-.337-.027-.503-.085-1.491-.514-2.324-2.096-2.475-2.407l-3.999-12.962-15.481-14.881a1.576 1.576 0 0 1-.049-2.224 1.559 1.559 0 0 1 2.215-.05l15.775 15.163c.194.186.335.418.415.674l4.029 13.126c.08.108.425.524.59.587.801.304 1.233 1.204.942 2.013a1.559 1.559 0 0 1-1.459 1.046z" fill="#ffffff" data-color="1"></path>
        <path d="M169.012 121.663c-.282 0-.57-.077-.828-.239-1.884-1.18-3.008-3.358-3.13-3.602l-4.461-10.767-23.052-16.327a1.577 1.577 0 0 1-.377-2.192 1.559 1.559 0 0 1 2.183-.379l23.423 16.588c.241.171.43.408.544.681l4.589 11.086c.179.343.979 1.639 1.942 2.242.734.461.957 1.431.5 2.168a1.57 1.57 0 0 1-1.333.741z" fill="#ffffff" data-color="1"></path>
        <path d="M93.066 136.15a1.568 1.568 0 0 1-1.428-.922 17.255 17.255 0 0 1-1.396-4.91 17.15 17.15 0 0 1 3.404-12.73c2.792-3.65 6.829-5.989 11.372-6.586a17.007 17.007 0 0 1 12.68 3.418c.687.529.816 1.518.289 2.206a1.562 1.562 0 0 1-2.197.29c-2.97-2.289-6.649-3.29-10.364-2.793a13.906 13.906 0 0 0-9.295 5.383 14.016 14.016 0 0 0-2.781 10.405c.18 1.391.564 2.742 1.141 4.014.359.792.01 1.724-.777 2.084a1.578 1.578 0 0 1-.648.141z" fill="#ffffff" data-color="1"></path>
    </g>
</svg>