<svg preserveAspectRatio="xMidYMid meet" data-bbox="19.999 34.001 160.003 131.999" viewBox="19.999 34.001 160.003 131.999" height="200" width="200" xmlns="http://www.w3.org/2000/svg" data-type="color" role="presentation" aria-hidden="true" aria-label=""><defs><style>#comp-lw1hlju1__item-ker6vm4a svg [data-color="1"] {fill: #FFFFFF;}</style></defs>
    <g>
        <path d="M155.549 133.562a1.56 1.56 0 0 1-1.34-.759c-1.707-2.847-4.768-6.669-9.653-8.695-4.324-1.714-8.505-1.42-10.756-1.269a28.864 28.864 0 0 0-11.123 3.059 1.567 1.567 0 0 1-2.1-.684 1.564 1.564 0 0 1 .684-2.1 32.014 32.014 0 0 1 12.331-3.39c2.485-.173 7.129-.496 12.138 1.491 5.693 2.363 9.208 6.732 11.155 9.982a1.56 1.56 0 0 1-1.336 2.365z" fill="#ffffff" data-color="1"></path>
        <path d="M134.335 138.637c-1.834 0-3.772-.278-5.771-.566-.645-.044-1.287-.181-1.287-.181a78.89 78.89 0 0 1-13.124-3.081c-5.369-1.753-8.056-5.334-7.185-9.577.764-3.725 3.809-6.579 6.033-8.664 3.081-2.888 6.879-5.366 10.981-7.165 6.005-2.748 14.528-4.391 20.4-.744 2.517 1.579 4.163 4.004 4.641 6.835.49 2.897-.334 5.934-2.258 8.331a1.561 1.561 0 1 1-2.436-1.954c1.369-1.702 1.956-3.838 1.616-5.858-.327-1.938-1.47-3.61-3.217-4.704-4.827-3.002-12.427-1.364-17.47.944-3.804 1.669-7.297 3.945-10.124 6.594-2.024 1.897-4.544 4.26-5.109 7.013-.723 3.522 2.881 5.26 5.095 5.983a76.31 76.31 0 0 0 12.707 2.978c.132.024.512.105.879.125 3.513.498 6.547.93 8.776.073 1.001-.373 2.879-1.435 4.428-4.445a1.56 1.56 0 1 1 2.774 1.43c-2.029 3.945-4.688 5.41-6.094 5.934-1.332.514-2.76.699-4.255.699z" fill="#ffffff" data-color="1"></path>
        <path d="M134.606 129.92c-.032 0-.063-.002-.095-.003a1.562 1.562 0 0 1-1.465-1.652c.369-6.191 6.487-8.278 6.748-8.363a1.555 1.555 0 0 1 1.97.994 1.56 1.56 0 0 1-.987 1.968c-.178.061-4.372 1.531-4.614 5.587a1.564 1.564 0 0 1-1.557 1.469z" fill="#ffffff" data-color="1"></path>
        <path d="M155.055 132.772a1.56 1.56 0 0 1-1.501-1.133c-.984-3.451-1.24-6.964-.761-10.441.212-1.525.705-5.095 3.023-8.815.41-.657 1.265-2.029 2.734-3.459 2.31-2.25 5.337-3.832 8.754-4.574a1.57 1.57 0 0 1 1.856 1.194 1.562 1.562 0 0 1-1.196 1.858c-1.982.43-4.848 1.431-7.236 3.757-1.198 1.167-1.89 2.278-2.263 2.876-1.967 3.154-2.381 6.149-2.58 7.589-.42 3.046-.195 6.127.669 9.157a1.56 1.56 0 0 1-1.499 1.991z" fill="#ffffff" data-color="1"></path>
        <path d="M164.09 119.405c-1.326 0-2.707-.354-4.119-1.206a1.562 1.562 0 0 1 1.616-2.673c3.481 2.099 6.923-.49 11.015-5.034.332-.368.716-.759 1.123-1.172 1.601-1.624 3.593-3.647 3.051-5.356-.525-1.653-3.284-2.339-5.315-2.71-5.402-.984-12.712-.163-15.976 3.982-.268.34-.491.698-.664 1.062-.503 1.045-.542 2.161-.113 3.154.452 1.047 1.387 1.862 2.564 2.234.859.085 1.497.835 1.413 1.692-.085.859-.842 1.453-1.695 1.384a6.625 6.625 0 0 1-.659-.098c-2.043-.647-3.679-2.095-4.49-3.976-.791-1.838-.733-3.874.164-5.736a8.676 8.676 0 0 1 1.028-1.648c4.079-5.188 12.475-6.312 18.989-5.124 1.97.361 6.579 1.206 7.731 4.84 1.111 3.503-1.728 6.386-3.801 8.49-.373.378-.725.735-1.028 1.072-2.166 2.401-6.149 6.823-10.834 6.823z" fill="#ffffff" data-color="1"></path>
        <path d="M164.611 112.103c-.354 0-.71-.12-1.003-.366-1.472-1.235-3.217-.325-3.237-.317a1.56 1.56 0 1 1-1.463-2.758c.144-.08 3.642-1.89 6.706.683a1.56 1.56 0 0 1-1.003 2.758z" fill="#ffffff" data-color="1"></path>
        <path d="M147.297 166h-84.91c-4.363 0-8.455-2.304-10.678-6.01-6.133-10.233-2.532-23.232 2.417-31.254 7.058-11.444 19.802-19.863 37.88-25.023.139-.041.283-.061.429-.061h24.758a1.563 1.563 0 0 1 0 3.124h-24.54c-17.194 4.943-29.26 12.882-35.871 23.6-4.487 7.277-7.808 18.979-2.397 28.009 1.662 2.771 4.727 4.492 8.002 4.492h84.91c3.106 0 5.888-1.384 7.443-3.705 5.473-8.161 3.294-19.016-.567-26.454a1.562 1.562 0 0 1 2.771-1.44c4.275 8.232 6.621 20.339.39 29.632-2.135 3.186-5.889 5.09-10.037 5.09z" fill="#ffffff" data-color="1"></path>
        <path d="M105.525 165.787c-.862 0-1.562-.7-1.562-1.562v-11.021a1.563 1.563 0 0 1 3.124 0v11.021a1.563 1.563 0 0 1-1.562 1.562z" fill="#ffffff" data-color="1"></path>
        <path d="M121.97 108.852c-.208 0-.42-.042-.622-.13l-4.782-2.077a1.559 1.559 0 0 1-.932-1.58l5.661-58.943c.266-2.768-1.284-5.422-3.769-6.452-4.153-1.723-8.484-2.69-12.958-2.546a32.972 32.972 0 0 0-12.192 2.431c-2.695 1.091-4.323 3.73-4.05 6.571l5.661 58.94a1.557 1.557 0 0 1-1.404 1.702c-.872.061-1.621-.547-1.702-1.404l-5.661-58.94c-.407-4.226 1.999-8.149 5.984-9.762a36.118 36.118 0 0 1 13.34-2.661c5.007.003 9.638.903 14.177 2.786 3.74 1.55 6.076 5.512 5.679 9.633l-5.552 57.813 3.742 1.626a1.56 1.56 0 0 1-.62 2.993z" fill="#ffffff" data-color="1"></path>
        <path d="M107.342 90.424H90.865a1.563 1.563 0 0 1 0-3.124h16.477a1.563 1.563 0 0 1 0 3.124z" fill="#ffffff" data-color="1"></path>
        <path d="M117.983 98.511h-10.64a1.563 1.563 0 0 1 0-3.124h10.64a1.563 1.563 0 0 1 0 3.124z" fill="#ffffff" data-color="1"></path>
        <path d="M120.027 77.227H89.598a1.563 1.563 0 0 1 0-3.124h30.429a1.563 1.563 0 0 1 0 3.124z" fill="#ffffff" data-color="1"></path>
        <path d="M82.843 166c-.515 0-1.02-.256-1.316-.722l-.567-.888a38.06 38.06 0 0 1-5.488-14.168 38.351 38.351 0 0 1-.556-6.491v-2.432a1.563 1.563 0 0 1 3.124 0v2.432c0 1.994.171 3.999.508 5.963a34.998 34.998 0 0 0 5.041 13.014l.567.889a1.559 1.559 0 0 1-.474 2.155 1.54 1.54 0 0 1-.839.248z" fill="#ffffff" data-color="1"></path>
        <path d="M128.205 166c-.288 0-.579-.08-.838-.247a1.558 1.558 0 0 1-.474-2.155l.567-.888a35.037 35.037 0 0 0 5.041-13.016c.337-1.963.508-3.969.508-5.963v-2.432a1.563 1.563 0 0 1 3.124 0v2.432c0 2.17-.188 4.355-.556 6.491a38.082 38.082 0 0 1-5.488 14.17l-.567.886a1.562 1.562 0 0 1-1.317.722z" fill="#ffffff" data-color="1"></path>
        <path d="M46.291 157.502H31.089c-3.491 0-6.765-1.843-8.544-4.809-4.814-8.029-2.004-18.206 1.867-24.482 5.491-8.905 15.393-15.454 29.428-19.46.139-.041.283-.061.429-.061h10.715a1.563 1.563 0 0 1 0 3.124H54.489c-13.152 3.789-22.377 9.857-27.421 18.037-3.408 5.529-5.938 14.41-1.846 21.237 1.218 2.031 3.466 3.291 5.867 3.291h15.202c.862 0 1.562.7 1.562 1.562a1.563 1.563 0 0 1-1.562 1.561z" fill="#ffffff" data-color="1"></path>
        <path d="M54.267 111.813a1.562 1.562 0 0 1-1.552-1.413l-4.367-45.468c-.329-3.418 1.616-6.593 4.837-7.897a28.268 28.268 0 0 1 10.424-2.078c3.75.03 7.529.705 11.074 2.178 3.03 1.255 4.922 4.46 4.6 7.794-.512 5.339-1.294 13.196-2.073 21.023-.762 7.651-1.523 15.274-2.024 20.493a1.552 1.552 0 0 1-1.702 1.404 1.558 1.558 0 0 1-1.404-1.702c.501-5.222 1.26-12.85 2.024-20.505.779-7.823 1.56-15.675 2.073-21.011.19-1.98-.916-3.877-2.69-4.613-3.157-1.311-6.465-2.004-9.855-1.938a25.155 25.155 0 0 0-9.277 1.848c-1.929.783-3.096 2.673-2.901 4.706l4.367 45.468a1.557 1.557 0 0 1-1.554 1.711z" fill="#ffffff" data-color="1"></path>
        <path d="M65.902 100.547H53.19a1.563 1.563 0 0 1 0-3.124h12.712a1.563 1.563 0 0 1 0 3.124z" fill="#ffffff" data-color="1"></path>
        <path d="M75.555 89.018H52.08a1.563 1.563 0 0 1 0-3.124h23.474a1.563 1.563 0 0 1 .001 3.124z" fill="#ffffff" data-color="1"></path>
    </g>
</svg>